<svg width="16" height="16" viewBox="0 0 16 16" fill="none" xmlns="http://www.w3.org/2000/svg">
<path d="M8 15.3334C12.0434 15.3334 15.3333 12.0438 15.3333 8.00008C15.3333 7.30214 15.2359 6.61434 15.043 5.95563C14.948 5.63173 14.6097 5.44568 14.2849 5.54072C13.9607 5.63546 13.7753 5.97488 13.87 6.29879C14.0298 6.84604 14.1111 7.41866 14.1111 8.00008C14.1111 11.3697 11.3696 14.1112 8 14.1112C4.63039 14.1112 1.88889 11.3697 1.88889 8.00008C1.88889 4.63047 4.63039 1.88897 8 1.88897C9.22461 1.88897 10.4028 2.24704 11.4072 2.92425C11.6868 3.11298 12.067 3.03883 12.2554 2.75924C12.444 2.47934 12.3704 2.09949 12.0905 1.9109C10.8835 1.09703 9.46915 0.666748 8 0.666748C3.95662 0.666748 0.666672 3.95639 0.666672 8.00008C0.666672 12.0438 3.95662 15.3334 8 15.3334Z" fill="#FF3F3A"/>
<path d="M14.8619 1.52861L7.99988 8.39026L5.80457 6.19527C5.54415 5.93502 5.12228 5.93502 4.86186 6.19527C4.60161 6.45569 4.60161 6.87756 4.86186 7.13798L7.52853 9.80465C7.6589 9.93502 7.82915 9.99996 7.99988 9.99996C8.17062 9.99996 8.34087 9.93502 8.47124 9.80465L15.8046 2.47131C16.0648 2.2109 16.0648 1.78902 15.8046 1.52861C15.5442 1.26835 15.1223 1.26835 14.8619 1.52861Z" fill="#FF3F3A"/>
</svg>
