<svg width="16" height="16" viewBox="0 0 16 16" fill="none" xmlns="http://www.w3.org/2000/svg">
<path fill-rule="evenodd" clip-rule="evenodd" d="M7.70186 0.737008C7.88954 0.643165 8.11046 0.643165 8.29814 0.737008L14.9648 4.07034C15.1907 4.18327 15.3333 4.41411 15.3333 4.66663C15.3333 4.91914 15.1907 5.14998 14.9648 5.26291L8.29814 8.59624C8.11046 8.69009 7.88954 8.69009 7.70186 8.59624L1.03519 5.26291C0.809333 5.14998 0.666665 4.91914 0.666665 4.66663C0.666665 4.41411 0.809333 4.18327 1.03519 4.07034L7.70186 0.737008ZM2.82404 4.66663L8 7.2546L13.176 4.66663L8 2.07865L2.82404 4.66663Z" fill="#9A9CA5"/>
<path fill-rule="evenodd" clip-rule="evenodd" d="M0.737047 7.70182C0.901707 7.3725 1.30216 7.23901 1.63147 7.40367L8 10.5879L14.3685 7.40367C14.6978 7.23901 15.0983 7.3725 15.263 7.70182C15.4276 8.03114 15.2941 8.43158 14.9648 8.59624L8.29814 11.9296C8.11046 12.0234 7.88954 12.0234 7.70186 11.9296L1.03519 8.59624C0.70587 8.43158 0.572388 8.03114 0.737047 7.70182Z" fill="#9A9CA5"/>
<path fill-rule="evenodd" clip-rule="evenodd" d="M0.737047 11.0351C0.901707 10.7058 1.30216 10.5723 1.63147 10.737L8 13.9213L14.3685 10.737C14.6978 10.5723 15.0983 10.7058 15.263 11.0351C15.4276 11.3645 15.2941 11.7649 14.9648 11.9296L8.29814 15.2629C8.11046 15.3568 7.88954 15.3568 7.70186 15.2629L1.03519 11.9296C0.705871 11.7649 0.572388 11.3645 0.737047 11.0351Z" fill="#9A9CA5"/>
</svg>
