<svg width="16" height="16" viewBox="0 0 16 16" fill="none" xmlns="http://www.w3.org/2000/svg">
<path fill-rule="evenodd" clip-rule="evenodd" d="M14.6153 7.04496C14.5204 7.70278 14.2954 8.328 13.9619 8.90294C13.9869 9.04529 13.9997 9.18917 13.9997 9.33368C13.9997 9.83556 13.8543 10.3159 13.5849 10.7523C13.4504 10.9701 13.4158 11.2254 13.4025 11.394C13.3873 11.5873 13.3924 11.7987 13.4062 12.0019C13.4217 12.2298 13.4497 12.4691 13.4818 12.6948C13.2216 12.619 12.9395 12.5427 12.6704 12.482C12.4465 12.4315 12.2174 12.3885 12.0099 12.367C11.8289 12.3483 11.5674 12.3339 11.3335 12.4095C10.8221 12.5748 10.2594 12.667 9.66636 12.667C8.96109 12.667 8.31335 12.5418 7.74559 12.3243C7.60903 12.3305 7.47146 12.3337 7.33301 12.3337C6.52993 12.3337 5.75701 12.2281 5.03385 12.0329C6.08516 13.2488 7.81828 14.0003 9.66636 14.0003C10.3883 14.0003 11.0812 13.8895 11.7198 13.6858C11.7209 13.6859 11.723 13.6858 11.726 13.6858C11.7424 13.6854 11.7879 13.6845 11.8729 13.6933C12.0067 13.7071 12.1786 13.7379 12.377 13.7827C12.7719 13.8718 13.2157 14.0032 13.5615 14.113C14.2949 14.3458 15.0056 13.7058 14.8745 12.9615C14.8181 12.6412 14.7595 12.2502 14.7365 11.9116C14.7249 11.7413 14.7236 11.6015 14.7317 11.4989C14.7351 11.4564 14.7394 11.4297 14.7421 11.4156C15.1172 10.7943 15.333 10.0868 15.333 9.33368C15.333 8.48465 15.0693 7.70934 14.6153 7.04496Z" fill="#9A9CA5"/>
<path fill-rule="evenodd" clip-rule="evenodd" d="M3.73109 3.79882C2.83245 4.48601 2.33306 5.3881 2.33306 6.33337C2.33306 6.80473 2.45577 7.25871 2.68599 7.68086C2.77367 7.84165 2.79854 8.00751 2.80744 8.11979C2.81714 8.24222 2.8123 8.36805 2.80166 8.48572C2.78034 8.7213 2.72949 8.98822 2.66849 9.25113C2.59715 9.55866 2.50572 9.88663 2.41296 10.1946C2.76512 10.0666 3.15003 9.9354 3.51493 9.82895C3.80985 9.74291 4.10767 9.66825 4.37274 9.62634C4.60108 9.59023 4.93243 9.55474 5.2177 9.65344C5.85792 9.87494 6.57411 10 7.33306 10C8.76451 10 10.0358 9.5556 10.935 8.86793C11.8337 8.18074 12.3331 7.27865 12.3331 6.33337C12.3331 5.3881 11.8337 4.48601 10.935 3.79882C10.0358 3.11115 8.76451 2.66671 7.33306 2.66671C5.90162 2.66671 4.63034 3.11115 3.73109 3.79882ZM2.92116 2.73967C4.07283 1.85898 5.6349 1.33337 7.33306 1.33337C9.03123 1.33337 10.5933 1.85898 11.745 2.73967C12.8973 3.62084 13.6664 4.88541 13.6664 6.33337C13.6664 7.78133 12.8973 9.04591 11.745 9.92708C10.5933 10.8078 9.03123 11.3334 7.33306 11.3334C6.43769 11.3334 5.58244 11.1874 4.80591 10.9218C4.80513 10.924 4.74215 10.9178 4.58098 10.9433C4.39521 10.9727 4.15809 11.0302 3.88836 11.1089C3.35138 11.2656 2.74835 11.4872 2.28902 11.666C1.49327 11.9757 0.682633 11.2114 0.95074 10.3973C1.09284 9.96586 1.26043 9.4206 1.36966 8.9498C1.42468 8.71263 1.46039 8.51323 1.47375 8.36557C1.47839 8.31431 1.47958 8.27695 1.47932 8.25169C1.17246 7.66531 0.99973 7.01687 0.99973 6.33337C0.99973 4.88541 1.76887 3.62084 2.92116 2.73967Z" fill="#9A9CA5"/>
</svg>
