<!-- Generated by IcoMoon.io -->
<svg version="1.1" xmlns="http://www.w3.org/2000/svg" width="1024" height="1024" viewBox="0 0 1024 1024">
<title></title>
<g id="icomoon-ignore">
</g>
<path d="M433.892 93.933c29.642-68.358 126.584-68.358 156.227 0l89.67 206.784 224.371 21.38c74.17 7.068 104.128 99.265 48.275 148.58l-168.954 149.18 49.005 219.995c16.198 72.73-62.234 129.709-126.394 91.834l-194.088-114.592-194.088 114.592c-64.161 37.875-142.589-19.104-126.39-91.834l49.001-219.995-168.954-149.18c-55.853-49.316-25.896-141.513 48.276-148.58l224.373-21.38 89.668-206.784zM601.674 334.589l-89.669-206.784-89.668 206.784c-12.337 28.451-39.167 47.944-70.037 50.885l-224.372 21.38 168.954 149.18c23.245 20.525 33.493 52.065 26.751 82.333l-49.001 220 194.088-114.586c26.703-15.77 59.867-15.77 86.57 0l194.086 114.586-48.998-220c-6.739-30.268 3.507-61.809 26.752-82.333l168.954-149.18-224.371-21.38c-30.874-2.941-57.701-22.435-70.038-50.885z"></path>
</svg>
