<svg width="16" height="16" viewBox="0 0 16 16" fill="none" xmlns="http://www.w3.org/2000/svg">
<path fill-rule="evenodd" clip-rule="evenodd" d="M9.45453 2.16671C9.36152 2.16671 9.2753 2.21615 9.22826 2.29675L9.22416 2.30377L6.16666 7.26054V13.8334H11.8905C12.0134 13.8334 12.1196 13.7481 12.1462 13.6284L12.1485 13.618L13.8485 6.97822C13.8796 6.81729 13.7563 6.66671 13.5913 6.66671H11C10.5659 6.66671 10.1266 6.52167 9.80679 6.20953C9.47058 5.88138 9.31471 5.41142 9.41474 4.90511L9.89397 2.4794C9.92597 2.31745 9.80203 2.16671 9.63708 2.16671H9.45453ZM4.83333 13.8334V7.73814H2.47102C2.32722 7.73814 2.21023 7.85415 2.20912 7.99811C2.20912 7.99811 2.20912 7.9981 2.20912 7.99811L2.16667 13.5695C2.16555 13.7148 2.2831 13.8334 2.42851 13.8334H4.83333ZM5.12792 6.4048L8.08138 1.6167C8.36826 1.13161 8.89015 0.833374 9.45453 0.833374H9.63708C10.6422 0.833374 11.3968 1.75176 11.202 2.73783L10.7228 5.16354C10.7143 5.20671 10.7198 5.22632 10.7211 5.23063C10.7226 5.23542 10.7259 5.24341 10.7381 5.25535C10.766 5.28256 10.849 5.33337 11 5.33337H13.5913C14.612 5.33337 15.3699 6.27862 15.1486 7.27478L15.1462 7.28518L13.4451 13.9294C13.2786 14.6531 12.6341 15.1667 11.8905 15.1667H2.42851C1.54281 15.1667 0.826588 14.4451 0.833376 13.5594C0.833376 13.5593 0.833376 13.5594 0.833376 13.5594L0.875825 7.98793C0.882542 7.11174 1.59468 6.4048 2.47102 6.4048H5.12792Z" fill="#9A9CA5"/>
</svg>
