<svg width="16" height="17" viewBox="0 0 16 17" fill="none" xmlns="http://www.w3.org/2000/svg">
<path fill-rule="evenodd" clip-rule="evenodd" d="M4.99998 1.33325C5.36817 1.33325 5.66665 1.63173 5.66665 1.99992V2.33326L10.3333 2.33327V1.99992C10.3333 1.63173 10.6318 1.33325 11 1.33325C11.3682 1.33325 11.6666 1.63173 11.6666 1.99992V2.33327L12.5 2.33327C13.9727 2.33328 15.1666 3.52718 15.1666 4.99994V12.9999C15.1666 14.4727 13.9727 15.6666 12.5 15.6666L3.49998 15.6666C2.02722 15.6666 0.833313 14.4727 0.833313 12.9999L0.833313 6.50005L0.833313 4.99992C0.833313 3.52716 2.02722 2.33325 3.49999 2.33326L4.33331 2.33326V1.99992C4.33331 1.63173 4.63179 1.33325 4.99998 1.33325ZM4.33331 3.66659L3.49998 3.66659C2.7636 3.66659 2.16665 4.26354 2.16665 4.99992V5.83325H13.8333V4.99994C13.8333 4.26356 13.2364 3.66661 12.5 3.66661L11.6666 3.66661V3.99992C11.6666 4.36811 11.3682 4.66659 11 4.66659C10.6318 4.66659 10.3333 4.36811 10.3333 3.99992V3.6666L5.66665 3.66659V3.99992C5.66665 4.36811 5.36817 4.66659 4.99998 4.66659C4.63179 4.66659 4.33331 4.36811 4.33331 3.99992V3.66659ZM13.8333 7.16658H2.16665L2.16665 12.9999C2.16665 13.7363 2.7636 14.3333 3.49998 14.3333L12.5 14.3333C13.2364 14.3333 13.8333 13.7363 13.8333 12.9999V7.16658Z" fill="#787A80"/>
</svg>
