<svg width="16" height="17" viewBox="0 0 16 17" fill="none" xmlns="http://www.w3.org/2000/svg">
<path fill-rule="evenodd" clip-rule="evenodd" d="M10.7118 7.44076C11.4101 7.97441 11.4101 9.0258 10.7118 9.55946L7.65854 11.8931C6.78115 12.5637 5.51555 11.938 5.51555 10.8337V6.16648C5.51555 5.06217 6.78115 4.43654 7.65854 5.10713L10.7118 7.44076ZM9.90217 8.50011L6.84888 6.16648L6.84888 10.8337L9.90217 8.50011Z" fill="#424551"/>
<path fill-rule="evenodd" clip-rule="evenodd" d="M7.99997 2.50008C4.68627 2.50008 1.99997 5.18637 1.99997 8.50008C1.99997 11.8138 4.68627 14.5001 7.99997 14.5001C11.3137 14.5001 14 11.8138 14 8.50008C14 5.18637 11.3137 2.50008 7.99997 2.50008ZM0.666641 8.50008C0.666641 4.44999 3.94989 1.16675 7.99997 1.16675C12.0501 1.16675 15.3333 4.44999 15.3333 8.50008C15.3333 12.5502 12.0501 15.8334 7.99997 15.8334C3.94989 15.8334 0.666641 12.5502 0.666641 8.50008Z" fill="#424551"/>
</svg>
