<svg width="16" height="17" viewBox="0 0 16 17" fill="none" xmlns="http://www.w3.org/2000/svg">
<g clip-path="url(#clip0_47_300)">
<path fill-rule="evenodd" clip-rule="evenodd" d="M4.13333 4.76657C4.13333 2.63107 5.8645 0.899902 8 0.899902C10.1355 0.899902 11.8667 2.63107 11.8667 4.76657V7.96657C11.8667 10.1021 10.1355 11.8332 8 11.8332C5.8645 11.8332 4.13333 10.1021 4.13333 7.96657V4.76657ZM8 2.23324C6.60088 2.23324 5.46667 3.36745 5.46667 4.76657V7.96657C5.46667 9.36569 6.60088 10.4999 8 10.4999C9.39912 10.4999 10.5333 9.36569 10.5333 7.96657V4.76657C10.5333 3.36745 9.39912 2.23324 8 2.23324Z" fill="#424551"/>
<path fill-rule="evenodd" clip-rule="evenodd" d="M2.66667 6.23324C3.03486 6.23324 3.33333 6.53171 3.33333 6.8999V7.96657C3.33333 10.5439 5.42267 12.6332 8 12.6332C10.5773 12.6332 12.6667 10.5439 12.6667 7.96657V6.8999C12.6667 6.53171 12.9651 6.23324 13.3333 6.23324C13.7015 6.23324 14 6.53171 14 6.8999V7.96657C14 11.2803 11.3137 13.9666 8 13.9666C4.68629 13.9666 2 11.2803 2 7.96657V6.8999C2 6.53171 2.29848 6.23324 2.66667 6.23324Z" fill="#424551"/>
<path fill-rule="evenodd" clip-rule="evenodd" d="M8 13.1666C8.36819 13.1666 8.66667 13.465 8.66667 13.8332V14.7666H10.1333C10.5015 14.7666 10.8 15.065 10.8 15.4332C10.8 15.8014 10.5015 16.0999 10.1333 16.0999H5.86667C5.49848 16.0999 5.2 15.8014 5.2 15.4332C5.2 15.065 5.49848 14.7666 5.86667 14.7666H7.33333V13.8332C7.33333 13.465 7.63181 13.1666 8 13.1666Z" fill="#424551"/>
</g>
<defs>
<clipPath id="clip0_47_300">
<rect width="16" height="16" fill="white" transform="translate(0 0.5)"/>
</clipPath>
</defs>
</svg>
