<svg width="16" height="17" viewBox="0 0 16 17" fill="none" xmlns="http://www.w3.org/2000/svg">
<path fill-rule="evenodd" clip-rule="evenodd" d="M5.33333 9.49992C5.33333 9.13173 5.63181 8.83325 5.99999 8.83325H10C10.3682 8.83325 10.6667 9.13173 10.6667 9.49992C10.6667 9.86811 10.3682 10.1666 10 10.1666H5.99999C5.63181 10.1666 5.33333 9.86811 5.33333 9.49992Z" fill="#424551"/>
<path fill-rule="evenodd" clip-rule="evenodd" d="M5.33333 11.9999C5.33333 11.6317 5.63181 11.3333 5.99999 11.3333H8C8.36819 11.3333 8.66666 11.6317 8.66666 11.9999C8.66666 12.3681 8.36819 12.6666 8 12.6666H5.99999C5.63181 12.6666 5.33333 12.3681 5.33333 11.9999Z" fill="#424551"/>
<path fill-rule="evenodd" clip-rule="evenodd" d="M6.02861 1.52851C6.15363 1.40349 6.3232 1.33325 6.50001 1.33325H11C12.4728 1.33325 13.6667 2.52716 13.6667 3.99992L13.6667 12.9999C13.6667 14.4727 12.4728 15.6666 11 15.6666H4.99999C3.52723 15.6666 2.33332 14.4727 2.33333 12.9999L2.33334 5.49992C2.33335 5.32311 2.40358 5.15354 2.52861 5.02851L6.02861 1.52851ZM6.33332 3.10942V5.33325H4.10949L6.33332 3.10942ZM3.66668 6.66659L3.66666 12.9999C3.66666 13.7363 4.26361 14.3333 4.99999 14.3333H11C11.7364 14.3333 12.3333 13.7363 12.3333 12.9999L12.3333 3.99992C12.3333 3.26354 11.7364 2.66659 11 2.66659H7.66666V5.99992C7.66666 6.36811 7.36818 6.66659 6.99999 6.66659H3.66668Z" fill="#424551"/>
</svg>
