<svg width="20" height="20" viewBox="0 0 20 20" fill="none" xmlns="http://www.w3.org/2000/svg">
<path fill-rule="evenodd" clip-rule="evenodd" d="M10.0001 2.70817C8.3893 2.70817 7.08347 4.01401 7.08347 5.62484C7.08347 7.23567 8.3893 8.5415 10.0001 8.5415C11.611 8.5415 12.9168 7.23567 12.9168 5.62484C12.9168 4.01401 11.611 2.70817 10.0001 2.70817ZM5.4168 5.62484C5.4168 3.09353 7.46883 1.0415 10.0001 1.0415C12.5314 1.0415 14.5835 3.09353 14.5835 5.62484C14.5835 8.15614 12.5314 10.2082 10.0001 10.2082C7.46883 10.2082 5.4168 8.15614 5.4168 5.62484Z" fill="#424551"/>
<path fill-rule="evenodd" clip-rule="evenodd" d="M5.08685 12.7082C4.50908 12.7082 4.05749 12.9895 3.87418 13.3937C3.62047 13.9531 3.39072 14.6192 3.3365 15.2508C3.31226 15.5332 3.43 15.7413 3.59224 15.8421C4.44987 16.3748 6.43713 17.2915 10.0001 17.2915C13.5631 17.2915 15.5504 16.3748 16.408 15.8421C16.5703 15.7413 16.688 15.5332 16.6638 15.2508C16.6096 14.6192 16.3798 13.9531 16.1261 13.3937C15.9428 12.9895 15.4912 12.7082 14.9134 12.7082H5.08685ZM2.35632 12.7053C2.86294 11.5882 3.99422 11.0415 5.08685 11.0415H14.9134C16.006 11.0415 17.1373 11.5882 17.6439 12.7053C17.9349 13.3469 18.2472 14.2094 18.3243 15.1083C18.3946 15.9268 18.0544 16.7814 17.2875 17.2578C16.1596 17.9585 13.8665 18.9582 10.0001 18.9582C6.1338 18.9582 3.84072 17.9585 2.71277 17.2578C1.94589 16.7814 1.60569 15.9268 1.67594 15.1083C1.75309 14.2094 2.06534 13.3469 2.35632 12.7053Z" fill="#424551"/>
</svg>
